<svg width="38" height="38" viewBox="0 0 38 38" fill="none" xmlns="http://www.w3.org/2000/svg">
<g filter="url(#filter0_i_103_23)">
<path fill-rule="evenodd" clip-rule="evenodd" d="M18.815 0C8.41971 0 0 8.41971 0 18.815C0 27.1406 5.38579 34.1727 12.8648 36.6657C13.8055 36.8304 14.1583 36.2659 14.1583 35.772C14.1583 35.3252 14.1348 33.8435 14.1348 32.2677C9.4075 33.1379 8.18453 31.1153 7.80823 30.057C7.59656 29.516 6.67933 27.8462 5.87969 27.3993C5.22116 27.0466 4.28041 26.1764 5.85617 26.1529C7.33785 26.1293 8.39619 27.5169 8.74898 28.0814C10.4423 30.9272 13.147 30.1275 14.2288 29.6336C14.3935 28.4107 14.8874 27.5875 15.4283 27.1171C11.242 26.6467 6.86748 25.024 6.86748 17.8272C6.86748 15.7811 7.59656 14.0877 8.79601 12.7707C8.60786 12.3003 7.94934 10.3718 8.98416 7.78471C8.98416 7.78471 10.5599 7.29081 14.1583 9.71324C15.6635 9.28991 17.2628 9.07824 18.862 9.07824C20.4613 9.07824 22.0606 9.28991 23.5658 9.71324C27.1642 7.26729 28.7399 7.78471 28.7399 7.78471C29.7747 10.3718 29.1162 12.3003 28.9281 12.7707C30.1275 14.0877 30.8566 15.7576 30.8566 17.8272C30.8566 25.0475 26.4586 26.6467 22.2723 27.1171C22.9543 27.7051 23.5423 28.834 23.5423 30.5979C23.5423 33.1144 23.5188 35.137 23.5188 35.772C23.5188 36.2659 23.8715 36.8539 24.8123 36.6657C32.2442 34.1727 37.63 27.1171 37.63 18.815C37.63 8.41971 29.2103 0 18.815 0Z" fill="black" fill-opacity="0.25"/>
</g>
<defs>
<filter id="filter0_i_103_23" x="0" y="0" width="37.63" height="40.7017" filterUnits="userSpaceOnUse" color-interpolation-filters="sRGB">
<feFlood flood-opacity="0" result="BackgroundImageFix"/>
<feBlend mode="normal" in="SourceGraphic" in2="BackgroundImageFix" result="shape"/>
<feColorMatrix in="SourceAlpha" type="matrix" values="0 0 0 0 0 0 0 0 0 0 0 0 0 0 0 0 0 0 127 0" result="hardAlpha"/>
<feOffset dy="4"/>
<feGaussianBlur stdDeviation="2"/>
<feComposite in2="hardAlpha" operator="arithmetic" k2="-1" k3="1"/>
<feColorMatrix type="matrix" values="0 0 0 0 0.8 0 0 0 0 0.8 0 0 0 0 0.8 0 0 0 0.25 0"/>
<feBlend mode="normal" in2="shape" result="effect1_innerShadow_103_23"/>
</filter>
</defs>
</svg>
