<svg width="38" height="36" viewBox="0 0 38 36" fill="none" xmlns="http://www.w3.org/2000/svg">
<g filter="url(#filter0_i_1_26)">
<path fill-rule="evenodd" clip-rule="evenodd" d="M2.02687 4.34844C2.02687 3.63115 2.32779 2.94323 2.86344 2.43603C3.39908 1.92882 4.12557 1.64388 4.88309 1.64388H33.3552C33.7306 1.6433 34.1024 1.71284 34.4494 1.84851C34.7964 1.98419 35.1117 2.18333 35.3773 2.43455C35.6429 2.68577 35.8535 2.98413 35.9972 3.31254C36.1408 3.64095 36.2147 3.99297 36.2145 4.34844V31.3087C36.2149 31.6642 36.1413 32.0164 35.9978 32.3449C35.8544 32.6735 35.6439 32.9721 35.3785 33.2235C35.113 33.475 34.7978 33.6745 34.4509 33.8105C34.104 33.9465 33.7322 34.0164 33.3567 34.0162H4.88309C4.50788 34.0162 4.13634 33.9462 3.7897 33.8102C3.44307 33.6742 3.12813 33.4748 2.86289 33.2235C2.59764 32.9722 2.38729 32.6739 2.24384 32.3456C2.10039 32.0173 2.02667 31.6655 2.02687 31.3102V4.34844ZM15.5589 13.9866H20.1883V16.1879C20.8565 14.9224 22.5659 13.7835 25.1346 13.7835C30.0592 13.7835 31.2262 16.3041 31.2262 20.929V29.4959H26.2426V21.9825C26.2426 19.3486 25.5744 17.8624 23.8774 17.8624C21.5231 17.8624 20.5441 19.4648 20.5441 21.9825V29.4959H15.5589V13.9866ZM7.01205 29.2943H11.9972V13.7835H7.01205V29.2928V29.2943ZM12.7105 8.72459C12.7199 9.12876 12.6439 9.53064 12.4871 9.90664C12.3302 10.2826 12.0957 10.6252 11.7971 10.9142C11.4986 11.2032 11.1421 11.4328 10.7485 11.5896C10.355 11.7463 9.93235 11.8271 9.50541 11.8271C9.07847 11.8271 8.65583 11.7463 8.26229 11.5896C7.86876 11.4328 7.51225 11.2032 7.2137 10.9142C6.91515 10.6252 6.68057 10.2826 6.52372 9.90664C6.36688 9.53064 6.29092 9.12876 6.30032 8.72459C6.31877 7.93125 6.66455 7.1763 7.26361 6.6214C7.86267 6.0665 8.66739 5.75578 9.50541 5.75578C10.3434 5.75578 11.1481 6.0665 11.7472 6.6214C12.3463 7.1763 12.692 7.93125 12.7105 8.72459Z" fill="#CCCCCC"/>
</g>
<defs>
<filter id="filter0_i_1_26" x="0.4729" y="0.172409" width="37.2956" height="39.3153" filterUnits="userSpaceOnUse" color-interpolation-filters="sRGB">
<feFlood flood-opacity="0" result="BackgroundImageFix"/>
<feBlend mode="normal" in="SourceGraphic" in2="BackgroundImageFix" result="shape"/>
<feColorMatrix in="SourceAlpha" type="matrix" values="0 0 0 0 0 0 0 0 0 0 0 0 0 0 0 0 0 0 127 0" result="hardAlpha"/>
<feOffset dy="4"/>
<feGaussianBlur stdDeviation="7.5"/>
<feComposite in2="hardAlpha" operator="arithmetic" k2="-1" k3="1"/>
<feColorMatrix type="matrix" values="0 0 0 0 0 0 0 0 0 0 0 0 0 0 0 0 0 0 0.2 0"/>
<feBlend mode="normal" in2="shape" result="effect1_innerShadow_1_26"/>
</filter>
</defs>
</svg>
